<svg width="338" height="122" viewBox="0 0 338 122" fill="none" xmlns="http://www.w3.org/2000/svg">
<g clip-path="url(#clip0_1_2)">
<mask id="mask0_1_2" style="mask-type:luminance" maskUnits="userSpaceOnUse" x="0" y="0" width="338" height="122">
<path d="M337.05 0H0V121.16H337.05V0Z" fill="white"/>
</mask>
<g mask="url(#mask0_1_2)">
<path d="M221.15 78.23C220.57 78.81 220.15 79.32 219.64 79.72C218.39 80.68 217.13 81.66 215.8 82.51C213.66 83.87 211.51 85.25 209.26 86.41C207.41 87.36 205.4 87.99 203.48 88.8C201.61 89.58 199.89 89.22 198.08 88.46C196.89 87.96 195.9 87.27 195.62 86.11C195.23 84.52 194.27 83.02 194.59 81.27C194.61 81.15 194.62 81.02 194.59 80.9C193.87 77.72 195.42 75.15 196.85 72.56C197.47 71.44 198.17 70.38 198.72 69.15C198.02 69.67 197.3 70.16 196.63 70.73C194.76 72.31 192.87 73.88 191.05 75.53C187.13 79.08 182.85 82.15 178.53 85.17C176.09 86.88 173.54 88.44 171.1 90.16C169.49 91.3 167.86 92.4 166.61 94.04C165.97 94.88 164.68 95.24 163.66 95.75C162.11 96.53 160.08 95.62 159.42 94.09C159.17 93.51 158.83 92.96 158.5 92.33C159.33 92.11 159.68 91.94 159.17 91.02C158.91 90.55 159.52 89.55 159.84 88.84C160.49 87.39 161.18 85.95 161.93 84.55C162.55 83.4 163.3 82.32 163.99 81.2C165.12 79.39 166.28 77.61 167.36 75.78C168.64 73.63 169.82 71.41 171.12 69.27C171.94 67.92 172.96 66.68 173.81 65.35C174.76 63.87 175.59 62.32 176.54 60.83C177.99 58.55 179.6 56.35 180.95 54.01C182.12 51.97 183.36 49.91 183.48 47.45C183.49 47.22 183.43 46.91 183.27 46.77C182.54 46.1 181.78 45.45 181 44.85C180.52 44.48 180.18 44.75 179.85 45.2C178.26 47.36 176.68 49.53 175.03 51.64C173.54 53.55 171.94 55.39 170.41 57.28C168.58 59.55 166.78 61.85 164.95 64.11C163.94 65.35 162.89 66.55 161.81 67.81C161.94 67.84 162.07 67.88 162.26 67.93C161.93 68.32 161.63 68.72 161.29 69.07C159.48 70.92 157.61 72.72 155.84 74.61C154.73 75.8 153.83 77.2 152.67 78.34C150.59 80.39 148.4 82.34 146.23 84.3C144.66 85.72 143.07 87.13 141.41 88.45C140.26 89.36 139.03 89.04 138.55 87.66C137.99 86.03 137.64 84.32 137.27 82.63C136.95 81.17 137.75 79.94 138.35 78.74C139.95 75.56 142.32 72.9 144.55 70.17C146.15 68.21 147.81 66.29 149.47 64.37C151.92 61.52 154.4 58.69 156.85 55.83C157.16 55.47 157.4 55.03 157.55 54.5C157.2 54.72 156.82 54.92 156.49 55.18C153.59 57.41 150.69 59.64 147.8 61.88C147.7 61.96 147.54 62.02 147.52 62.11C146.93 64.24 144.68 64.91 143.58 66.55C142.55 68.07 141.05 69.2 140.24 70.92C139.83 71.78 138.95 72.41 138.43 73.23C136.93 75.6 134.61 77.13 132.61 78.97C130.25 81.14 127.64 83.03 125.2 85.12C123.67 86.43 122.23 87.84 120.82 89.28C120.11 90.01 118.23 90.87 117.57 90.34C116.86 89.77 116.23 88.92 115.94 88.07C115.43 86.53 115.07 84.91 114.92 83.29C114.85 82.58 115.35 81.74 115.77 81.07C116.44 79.99 117.24 78.99 118 77.98C119.59 75.87 121.16 73.73 122.81 71.67C124.38 69.71 126.04 67.83 127.66 65.91C128.78 64.58 129.86 63.22 131.03 61.94C132.81 60 134.58 58.05 136.49 56.24C138.44 54.4 140.47 52.61 142.62 51.01C145.04 49.21 147.63 47.62 150.16 45.97C151.27 45.25 152.38 45.13 153.58 45.91C154.49 46.5 155.52 46.93 156.52 47.37C157.88 47.98 158.26 49.24 158.67 50.48C158.75 50.71 158.8 50.95 158.93 51.38C160.17 50.39 161.34 49.5 162.46 48.55C163.37 47.78 164.6 47.8 165.61 48.45C167.08 49.38 167.13 50.65 166.77 52.11C166.34 53.85 165.18 55.19 164.23 56.64C162.71 58.95 161.15 61.22 159.52 63.45C158.65 64.64 157.6 65.71 156.65 66.84C156.31 67.24 156.04 67.69 155.84 68.21C163.73 60.3 171.56 52.34 177.42 42.48C176.13 41.96 174.95 41.47 173.75 40.99C173.06 40.72 172.34 40.52 171.69 40.19C171.41 40.04 171.25 39.63 171.06 39.33C170.25 38.01 170.01 36.58 170.11 35.11C170.28 35.03 170.35 34.97 170.38 34.98C172.66 35.88 174.46 34.8 176.14 33.5C177.22 32.66 178.14 31.63 179.2 30.76C179.5 30.51 180.04 30.34 180.41 30.43C181.67 30.72 182.91 31 183.99 31.88C185.6 33.19 186.15 34.36 185.5 36.37C185.14 37.49 184.85 38.64 183.8 39.5C182.68 40.41 182.89 41.23 184 42.14C186.01 43.78 187.86 45.57 188.82 48.07C189.62 50.14 189.78 52.36 189.16 54.42C188.44 56.82 187.38 59.15 186.24 61.39C184.86 64.09 183.24 66.66 181.72 69.29C180.58 71.27 179.47 73.27 178.3 75.24C177.54 76.51 176.69 77.72 175.91 78.98C175.74 79.26 175.75 79.66 175.59 79.95C174.8 81.41 173.98 82.86 173.18 84.31C172.98 84.68 172.8 85.06 172.49 85.67C172.93 85.49 173.13 85.44 173.28 85.33C175.06 84.09 176.85 82.86 178.61 81.59C180.04 80.55 181.47 79.5 182.85 78.4C185.11 76.59 187.34 74.74 189.57 72.89C193.76 69.42 197.87 65.86 202.13 62.5C205.76 59.63 209.08 56.44 212.43 53.26C214.21 51.56 216.2 50.08 218.07 48.47C218.88 47.77 219.77 48.21 220.47 48.44C221.53 48.79 222.51 49.47 223.44 50.13C224.24 50.7 224.11 51.31 223.41 51.93C221.57 53.55 219.64 55.07 218.21 57.11C216.93 58.94 215.4 60.59 214.16 62.44C212.07 65.56 210.13 68.79 208.1 71.95C206.88 73.86 205.6 75.74 204.38 77.65C203.71 78.7 203.11 79.8 202.47 80.88C202.54 80.95 202.61 81.03 202.68 81.1C204.16 80.41 205.64 79.73 207.11 79.04C208.17 78.55 209.25 78.1 210.27 77.53C211.44 76.86 212.52 76.03 213.7 75.36C216.47 73.77 219.32 72.32 222.06 70.67C224.79 69.02 227.55 67.36 230.05 65.39C231.53 64.22 232.64 62.53 233.74 60.94C234.35 60.06 234.95 60.06 235.76 60.35C235.99 60.43 236.22 60.53 236.49 60.64C236.92 59.67 237.32 58.71 237.78 57.77C239.3 54.66 241.47 52 243.87 49.55C246.36 47 248.92 44.47 251.67 42.21C254.05 40.26 256.72 38.64 259.33 36.98C260.68 36.12 262.24 35.57 263.61 34.73C265.61 33.5 267.36 33.81 269.04 35.29C270.2 36.32 271.39 37.32 272.51 38.4C274.21 40.03 274.64 42.15 274.15 44.32C273.5 47.22 271.84 49.67 270.02 51.99C268.48 53.95 266.95 55.91 265.34 57.81C263.69 59.76 262.01 61.68 260.26 63.54C258.99 64.89 257.56 66.11 256.26 67.44C256.06 67.64 256.04 68.14 256.13 68.45C256.24 68.82 256.55 69.13 256.83 69.55C257.15 69.07 257.43 68.62 257.75 68.19C258.26 67.5 258.72 66.87 259.74 66.7C262.54 66.24 265.31 65.62 268.1 65.06C270.67 64.54 273.23 64.02 275.8 63.51C276.61 63.35 277.44 63.26 278.45 63.1C277.67 60.92 276.89 58.93 276.26 56.9C275.95 55.9 275.82 54.83 275.76 53.78C275.49 48.85 277.14 44.58 280.37 40.89C281.83 39.23 283.81 38.61 285.89 38.52C288.31 38.41 290.74 38.5 293.15 38.71C294.39 38.82 295.58 39.38 296.8 39.69C297.39 39.84 298.03 39.84 298.61 40C299.06 40.12 299.56 40.31 299.89 40.63C301.32 42.04 301.97 43.68 301.71 45.79C301.52 47.39 300.94 48.68 299.95 49.87C299.63 50.25 299.37 50.69 299.03 51.05C298.78 51.31 298.44 51.48 298.14 51.69C298.07 51.74 297.93 51.73 297.89 51.79C296.8 53.53 294.89 53.45 293.23 53.92C292.77 54.05 292.33 54.25 291.85 54.31C291.46 54.39 291.08 54.46 290.69 54.56C289.84 54.76 288.99 54.98 288.09 55.07C290.66 52.58 293.09 50.04 295.32 46.95C293.36 46.82 291.63 46.61 289.9 46.61C288.06 46.61 286.19 46.68 284.37 46.96C281.72 47.37 279.5 50.22 278.99 53.11C278.5 55.91 279.76 58.2 280.42 60.67C280.58 61.27 280.82 61.84 281.07 62.57C283.57 62.19 286.02 61.8 288.48 61.44C291.02 61.07 293.55 60.64 296.1 60.4C299.41 60.08 302.73 59.95 306.04 59.69C308.8 59.48 311.55 59.14 314.32 59.01C316.18 58.92 318.06 59.01 319.93 59.15C323.25 59.4 326.58 59.65 329.87 60.12C331.38 60.34 332.84 61.01 334.27 61.61C334.72 61.8 335.25 62.38 335.31 62.83C335.62 65.39 336.89 67.72 337 70.35C337.07 72.03 335.62 74.03 334.06 73.94C332.97 73.88 331.62 73.8 330.79 72.72C330.69 72.59 330.72 72.38 330.63 72.24C330.2 71.61 330 70.84 328.92 70.82C327.96 70.8 327.01 70.33 326.04 70.17C324.29 69.87 322.54 69.62 320.78 69.42C317.97 69.1 315.15 68.87 312.34 68.53C308.18 68.03 304.03 68.37 299.87 68.51C297.83 68.58 295.79 68.56 293.75 68.68C292.32 68.77 290.91 69.05 289.48 69.19C287.69 69.36 285.9 69.49 284.1 69.61C283.29 69.66 283.11 70.03 283.3 70.79C284.55 75.9 285.25 81.09 285.28 86.36C285.3 89.98 284.1 93.14 281.41 95.59C280.75 96.19 279.69 96.53 278.78 96.61C276.4 96.82 274.09 96.37 271.92 95.29C270.73 94.71 269.44 94.34 268.29 93.69C264.81 91.74 261.73 89.34 259.71 85.79C259.2 84.9 258.5 84.1 258.06 83.18C257.12 81.19 256.11 79.2 255.46 77.11C254.73 74.75 254.24 72.29 254.48 69.77C254.49 69.64 254.43 69.5 254.35 69.16C253.39 69.96 252.57 70.69 251.71 71.37C249.45 73.17 246.95 74.73 244.98 76.79C242.56 79.31 239.67 81.1 236.93 83.15C234.3 85.11 231.53 86.87 228.44 87.97C226.14 88.79 223.08 87.85 221.85 84.99C220.97 82.93 221.24 80.77 221.09 78.32L221.15 78.23ZM268.58 42.82C268.46 42.71 268.35 42.61 268.23 42.5C266.7 43.41 265.13 44.25 263.67 45.26C262.33 46.18 261.12 47.3 259.84 48.31C257.15 50.45 254.44 52.58 251.75 54.72C251.34 55.05 251.02 55.48 250.62 55.83C248.83 57.39 246.99 58.9 245.25 60.51C243.86 61.79 242.59 63.19 241.27 64.54C240.17 65.66 240.25 67.13 241.47 68.13C241.56 68.2 241.63 68.28 241.73 68.38C240.67 68.92 239.49 68.92 239.04 68.26C238.39 67.32 237.78 66.33 237.32 65.29C236.88 64.29 236.66 63.19 236.31 62C235.9 62.65 235.51 63.24 235.14 63.84C233.61 66.33 232.06 68.81 230.56 71.32C229.91 72.4 229.29 73.52 228.79 74.68C228.17 76.12 227.71 77.63 227.13 79.08C226.82 79.86 226.41 80.6 225.96 81.51C226.35 81.46 226.48 81.48 226.58 81.43C228.35 80.57 230.12 79.74 231.86 78.83C232.49 78.5 233.01 77.98 233.6 77.57C235.99 75.9 238.41 74.28 240.79 72.58C242.3 71.5 243.73 70.31 245.21 69.19C246.19 68.44 247.26 67.79 248.19 66.99C249.69 65.7 251.09 64.29 252.56 62.96C253.89 61.76 255.37 60.7 256.59 59.41C258.81 57.06 260.94 54.61 263.01 52.12C264.79 49.99 266.44 47.75 267.61 45.21C267.97 44.44 268.25 43.63 268.57 42.84L268.58 42.82ZM259.93 74.8C260.02 75 260.06 75.16 260.15 75.28C262.19 78.12 264.6 80.55 267.55 82.48C270.76 84.58 274.37 85.41 278.07 85.96C278.9 86.08 279.76 86.11 280.59 86.04C281.63 85.95 282.24 85.26 282.2 84.23C282.14 82.49 282.08 80.74 281.88 79.01C281.53 75.99 281.06 72.97 280.61 69.72C279.43 70 278.47 70.29 277.48 70.46C274.87 70.91 272.23 71.19 269.64 71.76C266.36 72.48 262.96 72.88 259.93 74.81V74.8ZM150.89 57.2C150.98 56.51 150.92 56.03 151.11 55.69C151.43 55.13 151.94 54.68 152.31 54.15C153.05 53.08 153.67 51.94 153.81 50.53C151.03 51.6 148.7 53.21 146.69 55.2C145.25 56.63 144.03 58.29 142.8 59.93C141.85 61.19 141.16 62.65 139.89 63.67C139.56 63.94 139.28 64.29 139.02 64.64C137.62 66.47 136.24 68.32 134.85 70.16C134.64 70.43 134.41 70.69 134.18 70.95C134.27 71.04 134.36 71.14 134.45 71.23C139.99 66.51 145.53 61.78 150.88 57.21L150.89 57.2ZM181.89 33.53C181.89 32.47 181.45 31.88 180.78 32.11C180.26 32.29 179.74 32.54 179.31 32.88C178.13 33.83 177 34.86 175.84 35.84C175.42 36.19 175.4 36.47 175.89 36.77C176.64 37.22 177.38 37.67 178.11 38.16C179.54 39.12 179.55 39.14 180.37 37.58C181.05 36.29 181.84 35.05 181.89 33.53Z" fill="white"/>
<path d="M25.14 115.13C24.26 115.62 24.11 116.8 22.83 117.02C21.34 117.27 19.94 118.02 18.37 117.76C17.76 117.66 17.17 117.47 16.56 117.36C15.58 117.18 14.6 117.02 13.62 116.88C13.49 116.86 13.29 116.92 13.21 117.02C12.71 117.63 12.1 117.42 11.6 117.16C10.66 116.66 9.73 116.11 8.87 115.47C6.58 113.78 4.59 111.78 3.43 109.15C2.5 107.05 1.8 104.85 0.919994 102.73C0.119994 100.8 0.0799946 98.76 0.0399946 96.76C-0.0200054 94.03 0.0099946 91.28 0.329994 88.58C0.779994 84.8 1.8 81.14 3.34 77.63C4.73 74.47 5.97 71.24 7.53 68.17C9.09 65.1 10.84 62.11 12.72 59.22C14.64 56.25 16.68 53.33 18.91 50.58C22.19 46.54 25.58 42.57 29.13 38.76C31.9 35.79 34.97 33.09 37.94 30.3C39.24 29.08 40.58 27.9 41.97 26.8C43.52 25.57 45.15 24.45 46.74 23.28C48.69 21.85 50.6 20.37 52.59 19C54.02 18.02 55.53 17.17 57.02 16.28C58.39 15.45 59.74 14.58 61.16 13.83C63.56 12.56 65.99 11.33 68.44 10.16C71.97 8.48 75.48 6.75 79.09 5.28C84.88 2.93 90.79 0.979998 97.05 0.249998C100.42 -0.140002 103.82 -0.180002 107.08 0.749998C108.55 1.17 109.93 2.17 111.13 3.17C113.12 4.82 114.83 6.81 116.12 9.06C117.35 11.19 118.44 13.41 118.22 16.02C118.14 17.03 118.39 18.09 118.22 19.08C117.99 20.48 117.55 21.85 117.13 23.21C116.36 25.74 115.48 28.23 114.18 30.56C113.38 31.99 112.81 33.54 111.98 34.95C110.43 37.58 108.78 40.15 107.13 42.73C105.72 44.93 104.26 47.1 102.79 49.27C101.54 51.12 100.28 52.96 98.99 54.79C97.48 56.92 95.96 59.04 94.41 61.13C93.04 62.98 91.63 64.8 90.21 66.61C88.03 69.41 85.82 72.19 83.64 74.99C83.23 75.52 82.89 76.11 82.65 76.83C83.24 76.4 83.84 75.96 84.43 75.53C88.38 72.69 92.31 69.83 96.28 67.02C99.95 64.43 103.66 61.9 107.34 59.32C110.76 56.92 114.19 54.55 117.55 52.07C119.88 50.35 122.09 48.48 124.38 46.71C124.65 46.5 125.14 46.36 125.46 46.45C126.46 46.74 127.43 47.16 128.42 47.51C130.51 48.26 131.2 50.78 129.68 52.37C126.77 55.42 123.78 58.41 120.88 61.47C119.62 62.79 118.48 64.23 117.28 65.61C115.6 67.56 113.85 69.46 112.25 71.48C111.43 72.52 110.89 73.77 110.22 74.92C108.88 77.2 107.45 79.43 106.21 81.76C105.35 83.37 104.76 85.12 104.03 86.79C103.77 87.38 103.48 87.96 103.17 88.52C103.07 88.71 102.89 88.9 102.71 88.99C101.61 89.49 100.61 89.22 99.8 88.36C98.27 86.73 97.99 84.56 97.34 82.58C97.1 81.85 97.53 80.8 97.89 80C98.78 78.02 99.67 76.01 100.82 74.16C102.66 71.2 104.7 68.38 106.65 65.49C106.88 65.15 107.08 64.79 107.29 64.44C107.21 64.37 107.13 64.3 107.05 64.23C106.1 64.98 105.15 65.75 104.18 66.48C103.46 67.02 102.67 67.48 101.98 68.05C100.64 69.17 99.39 70.38 98.04 71.48C96.93 72.38 95.71 73.15 94.55 73.99C90.79 76.73 87.04 79.49 83.26 82.2C81.34 83.57 79.42 84.93 77.22 85.87C76.1 86.35 75.18 87.29 74.14 87.97C72.41 89.1 70.63 90.16 68.9 91.29C68.42 91.61 67.91 92.01 67.63 92.49C67.04 93.49 66.11 93.96 65.14 94.4C64.14 94.86 63.13 95.3 62.11 95.74C61.47 96.01 59.93 95.32 59.67 94.56C59.43 93.85 58.88 93.69 58.3 93.46C57.85 93.28 57.25 92.99 57.12 92.61C57.02 92.33 57.57 91.83 57.82 91.42C58.27 90.7 58.71 89.97 59.15 89.25C60.41 87.15 61.57 84.98 62.95 82.96C64.83 80.21 66.84 77.56 68.85 74.91C70.75 72.41 72.75 69.99 74.67 67.5C77.4 63.98 80.1 60.43 82.8 56.89C85.82 52.92 88.85 48.96 91.8 44.94C96.08 39.11 100.28 33.22 104.52 27.37C107.07 23.85 109.25 20.11 111.04 16.15C111.53 15.07 111.91 13.94 112.29 12.82C112.64 11.8 112.43 11.29 111.34 11.01C109.79 10.61 108.2 10.18 106.62 10.13C104.87 10.08 103.08 10.33 101.34 10.64C97.15 11.39 92.98 12.25 88.8 13.09C88.44 13.16 88.11 13.36 87.76 13.49C84.82 14.66 81.82 15.71 78.95 17.03C76.28 18.26 73.73 19.77 71.14 21.16C69.69 21.94 68.26 22.76 66.8 23.52C65.46 24.22 64.09 24.85 62.74 25.52C62.66 25.56 62.55 25.59 62.49 25.65C61.51 26.93 59.87 27.18 58.64 28.09C56.56 29.62 54.36 30.97 52.27 32.47C50.34 33.86 48.47 35.34 46.58 36.79C44.89 38.09 43.21 39.41 41.52 40.7C41.31 40.86 41.03 40.92 40.9 41.16C40.63 41.4 40.36 41.64 40.09 41.89C39.82 42.14 39.56 42.39 39.29 42.63C38.14 43.65 36.97 44.65 35.84 45.7C34.21 47.22 32.56 48.73 31.03 50.35C29.71 51.75 28.54 53.3 27.33 54.8C25.75 56.77 24.14 58.72 22.65 60.76C21.08 62.91 19.56 65.11 18.18 67.38C16.53 70.12 15 72.93 13.53 75.77C12.22 78.3 11 80.88 9.87 83.49C8.96 85.59 8.24 87.78 7.42 89.92C6.97 91.1 6.31 92.23 6.05 93.45C5.54 95.85 5 98.28 4.93 100.72C4.85 103.59 4.88 106.56 6.57 109.12C6.99 109.75 7.6 110.28 8.19 110.76C9.49 111.81 10.74 112.99 12.19 113.76C14.61 115.05 17.09 116.4 20.03 115.82C21.07 115.61 22.08 115.28 23.11 115.04C23.74 114.89 24.38 114.81 25.02 114.7C25.07 114.84 25.13 114.98 25.18 115.11L25.14 115.13Z" fill="white"/>
<path d="M221.4 103.48C232.28 104.94 245.31 103.6 256.91 104.48C262.3 104.51 268.67 103.92 266.83 111.31C267.31 114.51 265.29 120.78 261.2 117.96C209.02 108.82 154.51 110.43 101.93 115.53C88.01 117.79 73.11 116.81 59.77 121.15C55.11 121.67 57.91 108 60.58 108.04C114.51 105.36 176.11 102.01 221.41 103.48H221.4Z" fill="white"/>
<path d="M223.02 40.75C223.98 39.64 224.91 38.5 225.9 37.42C227.55 35.6 229.38 33.92 230.11 31.43L228.15 34C228.1 33.97 228.04 33.93 227.99 33.9C228.32 33.31 228.64 32.71 229 32.14C231.88 27.45 234.69 22.71 237.66 18.08C240.51 13.65 243.53 9.34 246.94 5.31C247.69 4.43 248.52 4.37 249.51 4.43C250 4.46 250.51 4.49 250.99 4.38C253.04 3.9 255.22 5.03 255.72 7.08C255.88 7.72 255.54 8.63999 255.14 9.22999C253.46 11.7 251.71 14.13 249.9 16.52C248.62 18.21 247.19 19.78 245.85 21.43C245.14 22.3 244.54 23.26 243.82 24.12C243.17 24.9 242.42 25.6 241.73 26.35C240.9 27.26 240.13 28.21 239.29 29.09C238.28 30.16 237.22 31.18 236.18 32.22C236.1 32.3 235.94 32.34 235.89 32.44C235.27 33.63 234.23 34.08 232.95 34.15C232.71 34.16 232.47 34.38 232.24 34.52C232.09 34.61 231.9 34.86 231.84 34.83C231.23 34.5 230.89 34.9 230.58 35.28C229.38 36.69 227.54 37.36 226.41 38.92C225.94 39.56 224.95 39.81 224.21 40.27C223.88 40.47 223.6 40.75 223.3 40.99C223.21 40.91 223.12 40.84 223.04 40.76L223.02 40.75Z" fill="white"/>
</g>
</g>
<defs>
<clipPath id="clip0_1_2">
<rect width="338" height="122" fill="white"/>
</clipPath>
</defs>
</svg>
